<mxfile host="app.diagrams.net" agent="Mozilla/5.0 (X11; Linux x86_64; rv:132.0) Gecko/20100101 Firefox/132.0" version="24.8.6">
  <diagram name="Page-1" id="OLHkS_e3IFpQHsdVF8tk">
    <mxGraphModel dx="28680" dy="15560" grid="1" gridSize="10" guides="1" tooltips="1" connect="1" arrows="1" fold="1" page="1" pageScale="1" pageWidth="5000" pageHeight="1200" math="0" shadow="0">
      <root>
        <mxCell id="0" />
        <mxCell id="1" parent="0" />
        <mxCell id="nI0ptZJqEii6YHBotIrF-29" value="1" style="edgeStyle=orthogonalEdgeStyle;rounded=0;orthogonalLoop=1;jettySize=auto;html=1;exitX=0.5;exitY=1;exitDx=0;exitDy=0;entryX=0.5;entryY=0;entryDx=0;entryDy=0;" edge="1" parent="1" source="nI0ptZJqEii6YHBotIrF-1" target="nI0ptZJqEii6YHBotIrF-2">
          <mxGeometry relative="1" as="geometry" />
        </mxCell>
        <mxCell id="nI0ptZJqEii6YHBotIrF-1" value="Start" style="ellipse;whiteSpace=wrap;html=1;" vertex="1" parent="1">
          <mxGeometry width="120" height="80" as="geometry" />
        </mxCell>
        <mxCell id="nI0ptZJqEii6YHBotIrF-36" style="edgeStyle=orthogonalEdgeStyle;rounded=0;orthogonalLoop=1;jettySize=auto;html=1;exitX=0.5;exitY=1;exitDx=0;exitDy=0;entryX=0.5;entryY=0;entryDx=0;entryDy=0;" edge="1" parent="1" source="nI0ptZJqEii6YHBotIrF-2" target="nI0ptZJqEii6YHBotIrF-3">
          <mxGeometry relative="1" as="geometry" />
        </mxCell>
        <mxCell id="nI0ptZJqEii6YHBotIrF-2" value="create linked list" style="rounded=0;whiteSpace=wrap;html=1;" vertex="1" parent="1">
          <mxGeometry y="120" width="120" height="60" as="geometry" />
        </mxCell>
        <mxCell id="nI0ptZJqEii6YHBotIrF-37" style="edgeStyle=orthogonalEdgeStyle;rounded=0;orthogonalLoop=1;jettySize=auto;html=1;exitX=0.5;exitY=1;exitDx=0;exitDy=0;entryX=0.5;entryY=0;entryDx=0;entryDy=0;" edge="1" parent="1" source="nI0ptZJqEii6YHBotIrF-3" target="nI0ptZJqEii6YHBotIrF-4">
          <mxGeometry relative="1" as="geometry" />
        </mxCell>
        <mxCell id="nI0ptZJqEii6YHBotIrF-3" value="print linked list" style="shape=parallelogram;perimeter=parallelogramPerimeter;whiteSpace=wrap;html=1;fixedSize=1;" vertex="1" parent="1">
          <mxGeometry y="220" width="120" height="60" as="geometry" />
        </mxCell>
        <mxCell id="nI0ptZJqEii6YHBotIrF-38" style="edgeStyle=orthogonalEdgeStyle;rounded=0;orthogonalLoop=1;jettySize=auto;html=1;exitX=0.5;exitY=1;exitDx=0;exitDy=0;entryX=0.5;entryY=0;entryDx=0;entryDy=0;" edge="1" parent="1" source="nI0ptZJqEii6YHBotIrF-4" target="nI0ptZJqEii6YHBotIrF-5">
          <mxGeometry relative="1" as="geometry" />
        </mxCell>
        <mxCell id="nI0ptZJqEii6YHBotIrF-4" value="head = reverse(list)" style="shape=process;whiteSpace=wrap;html=1;backgroundOutline=1;" vertex="1" parent="1">
          <mxGeometry y="320" width="120" height="60" as="geometry" />
        </mxCell>
        <mxCell id="nI0ptZJqEii6YHBotIrF-39" style="edgeStyle=orthogonalEdgeStyle;rounded=0;orthogonalLoop=1;jettySize=auto;html=1;exitX=0.5;exitY=1;exitDx=0;exitDy=0;entryX=0.5;entryY=0;entryDx=0;entryDy=0;" edge="1" parent="1" source="nI0ptZJqEii6YHBotIrF-5" target="nI0ptZJqEii6YHBotIrF-10">
          <mxGeometry relative="1" as="geometry" />
        </mxCell>
        <mxCell id="nI0ptZJqEii6YHBotIrF-5" value="print linked list" style="shape=parallelogram;perimeter=parallelogramPerimeter;whiteSpace=wrap;html=1;fixedSize=1;" vertex="1" parent="1">
          <mxGeometry y="420" width="120" height="60" as="geometry" />
        </mxCell>
        <mxCell id="nI0ptZJqEii6YHBotIrF-40" style="edgeStyle=orthogonalEdgeStyle;rounded=0;orthogonalLoop=1;jettySize=auto;html=1;exitX=0.5;exitY=1;exitDx=0;exitDy=0;entryX=0.5;entryY=0;entryDx=0;entryDy=0;" edge="1" parent="1" source="nI0ptZJqEii6YHBotIrF-10" target="nI0ptZJqEii6YHBotIrF-11">
          <mxGeometry relative="1" as="geometry" />
        </mxCell>
        <mxCell id="nI0ptZJqEii6YHBotIrF-10" value="head = reverse(list)" style="shape=process;whiteSpace=wrap;html=1;backgroundOutline=1;" vertex="1" parent="1">
          <mxGeometry y="520" width="120" height="60" as="geometry" />
        </mxCell>
        <mxCell id="nI0ptZJqEii6YHBotIrF-41" style="edgeStyle=orthogonalEdgeStyle;rounded=0;orthogonalLoop=1;jettySize=auto;html=1;exitX=0.5;exitY=1;exitDx=0;exitDy=0;entryX=0.5;entryY=0;entryDx=0;entryDy=0;" edge="1" parent="1" source="nI0ptZJqEii6YHBotIrF-11" target="nI0ptZJqEii6YHBotIrF-12">
          <mxGeometry relative="1" as="geometry" />
        </mxCell>
        <mxCell id="nI0ptZJqEii6YHBotIrF-11" value="print linked list" style="shape=parallelogram;perimeter=parallelogramPerimeter;whiteSpace=wrap;html=1;fixedSize=1;" vertex="1" parent="1">
          <mxGeometry y="620" width="120" height="60" as="geometry" />
        </mxCell>
        <mxCell id="nI0ptZJqEii6YHBotIrF-42" style="edgeStyle=orthogonalEdgeStyle;rounded=0;orthogonalLoop=1;jettySize=auto;html=1;exitX=1;exitY=0.5;exitDx=0;exitDy=0;entryX=0;entryY=0.5;entryDx=0;entryDy=0;" edge="1" parent="1" source="nI0ptZJqEii6YHBotIrF-12" target="nI0ptZJqEii6YHBotIrF-13">
          <mxGeometry relative="1" as="geometry" />
        </mxCell>
        <mxCell id="nI0ptZJqEii6YHBotIrF-12" value="print_reversed(head)" style="shape=process;whiteSpace=wrap;html=1;backgroundOutline=1;" vertex="1" parent="1">
          <mxGeometry y="720" width="120" height="60" as="geometry" />
        </mxCell>
        <mxCell id="nI0ptZJqEii6YHBotIrF-43" style="edgeStyle=orthogonalEdgeStyle;rounded=0;orthogonalLoop=1;jettySize=auto;html=1;exitX=0.5;exitY=1;exitDx=0;exitDy=0;entryX=0.5;entryY=0;entryDx=0;entryDy=0;" edge="1" parent="1" source="nI0ptZJqEii6YHBotIrF-13" target="nI0ptZJqEii6YHBotIrF-14">
          <mxGeometry relative="1" as="geometry" />
        </mxCell>
        <mxCell id="nI0ptZJqEii6YHBotIrF-13" value="create 3 linked lists" style="rounded=0;whiteSpace=wrap;html=1;" vertex="1" parent="1">
          <mxGeometry x="200" y="120" width="120" height="60" as="geometry" />
        </mxCell>
        <mxCell id="nI0ptZJqEii6YHBotIrF-44" style="edgeStyle=orthogonalEdgeStyle;rounded=0;orthogonalLoop=1;jettySize=auto;html=1;exitX=0.5;exitY=1;exitDx=0;exitDy=0;entryX=0.5;entryY=0;entryDx=0;entryDy=0;" edge="1" parent="1" source="nI0ptZJqEii6YHBotIrF-14" target="nI0ptZJqEii6YHBotIrF-15">
          <mxGeometry relative="1" as="geometry" />
        </mxCell>
        <mxCell id="nI0ptZJqEii6YHBotIrF-14" value="compare h1 to h2" style="shape=process;whiteSpace=wrap;html=1;backgroundOutline=1;" vertex="1" parent="1">
          <mxGeometry x="200" y="220" width="120" height="60" as="geometry" />
        </mxCell>
        <mxCell id="nI0ptZJqEii6YHBotIrF-45" style="edgeStyle=orthogonalEdgeStyle;rounded=0;orthogonalLoop=1;jettySize=auto;html=1;exitX=0.5;exitY=1;exitDx=0;exitDy=0;entryX=0.5;entryY=0;entryDx=0;entryDy=0;" edge="1" parent="1" source="nI0ptZJqEii6YHBotIrF-15" target="nI0ptZJqEii6YHBotIrF-16">
          <mxGeometry relative="1" as="geometry" />
        </mxCell>
        <mxCell id="nI0ptZJqEii6YHBotIrF-15" value="compare h1 to h3" style="shape=process;whiteSpace=wrap;html=1;backgroundOutline=1;" vertex="1" parent="1">
          <mxGeometry x="200" y="320" width="120" height="60" as="geometry" />
        </mxCell>
        <mxCell id="nI0ptZJqEii6YHBotIrF-46" style="edgeStyle=orthogonalEdgeStyle;rounded=0;orthogonalLoop=1;jettySize=auto;html=1;exitX=0.5;exitY=1;exitDx=0;exitDy=0;entryX=0.5;entryY=0;entryDx=0;entryDy=0;" edge="1" parent="1" source="nI0ptZJqEii6YHBotIrF-16" target="nI0ptZJqEii6YHBotIrF-18">
          <mxGeometry relative="1" as="geometry" />
        </mxCell>
        <mxCell id="nI0ptZJqEii6YHBotIrF-16" value="compare h2 to h3" style="shape=process;whiteSpace=wrap;html=1;backgroundOutline=1;" vertex="1" parent="1">
          <mxGeometry x="200" y="420" width="120" height="60" as="geometry" />
        </mxCell>
        <mxCell id="nI0ptZJqEii6YHBotIrF-48" style="edgeStyle=orthogonalEdgeStyle;rounded=0;orthogonalLoop=1;jettySize=auto;html=1;exitX=1;exitY=0.5;exitDx=0;exitDy=0;entryX=0;entryY=0.5;entryDx=0;entryDy=0;" edge="1" parent="1" source="nI0ptZJqEii6YHBotIrF-17" target="nI0ptZJqEii6YHBotIrF-19">
          <mxGeometry relative="1" as="geometry" />
        </mxCell>
        <mxCell id="nI0ptZJqEii6YHBotIrF-17" value="print results" style="shape=parallelogram;perimeter=parallelogramPerimeter;whiteSpace=wrap;html=1;fixedSize=1;" vertex="1" parent="1">
          <mxGeometry x="200" y="620" width="120" height="60" as="geometry" />
        </mxCell>
        <mxCell id="nI0ptZJqEii6YHBotIrF-47" style="edgeStyle=orthogonalEdgeStyle;rounded=0;orthogonalLoop=1;jettySize=auto;html=1;exitX=0.5;exitY=1;exitDx=0;exitDy=0;entryX=0.5;entryY=0;entryDx=0;entryDy=0;" edge="1" parent="1" source="nI0ptZJqEii6YHBotIrF-18" target="nI0ptZJqEii6YHBotIrF-17">
          <mxGeometry relative="1" as="geometry" />
        </mxCell>
        <mxCell id="nI0ptZJqEii6YHBotIrF-18" value="compare h2 to h2" style="shape=process;whiteSpace=wrap;html=1;backgroundOutline=1;" vertex="1" parent="1">
          <mxGeometry x="200" y="520" width="120" height="60" as="geometry" />
        </mxCell>
        <mxCell id="nI0ptZJqEii6YHBotIrF-49" style="edgeStyle=orthogonalEdgeStyle;rounded=0;orthogonalLoop=1;jettySize=auto;html=1;exitX=0.5;exitY=1;exitDx=0;exitDy=0;entryX=0.5;entryY=0;entryDx=0;entryDy=0;" edge="1" parent="1" source="nI0ptZJqEii6YHBotIrF-19" target="nI0ptZJqEii6YHBotIrF-22">
          <mxGeometry relative="1" as="geometry" />
        </mxCell>
        <mxCell id="nI0ptZJqEii6YHBotIrF-19" value="create 2 linked lists" style="rounded=0;whiteSpace=wrap;html=1;" vertex="1" parent="1">
          <mxGeometry x="400" y="120" width="120" height="60" as="geometry" />
        </mxCell>
        <mxCell id="nI0ptZJqEii6YHBotIrF-52" style="edgeStyle=orthogonalEdgeStyle;rounded=0;orthogonalLoop=1;jettySize=auto;html=1;exitX=0.5;exitY=1;exitDx=0;exitDy=0;entryX=0.5;entryY=0;entryDx=0;entryDy=0;" edge="1" parent="1" source="nI0ptZJqEii6YHBotIrF-20" target="nI0ptZJqEii6YHBotIrF-21">
          <mxGeometry relative="1" as="geometry" />
        </mxCell>
        <mxCell id="nI0ptZJqEii6YHBotIrF-20" value="add(h1, h2)" style="shape=process;whiteSpace=wrap;html=1;backgroundOutline=1;" vertex="1" parent="1">
          <mxGeometry x="400" y="420" width="120" height="60" as="geometry" />
        </mxCell>
        <mxCell id="nI0ptZJqEii6YHBotIrF-53" style="edgeStyle=orthogonalEdgeStyle;rounded=0;orthogonalLoop=1;jettySize=auto;html=1;exitX=1;exitY=0.5;exitDx=0;exitDy=0;entryX=0;entryY=0.5;entryDx=0;entryDy=0;" edge="1" parent="1" source="nI0ptZJqEii6YHBotIrF-21" target="nI0ptZJqEii6YHBotIrF-24">
          <mxGeometry relative="1" as="geometry" />
        </mxCell>
        <mxCell id="nI0ptZJqEii6YHBotIrF-21" value="print result as n" style="shape=parallelogram;perimeter=parallelogramPerimeter;whiteSpace=wrap;html=1;fixedSize=1;" vertex="1" parent="1">
          <mxGeometry x="400" y="520" width="120" height="60" as="geometry" />
        </mxCell>
        <mxCell id="nI0ptZJqEii6YHBotIrF-50" style="edgeStyle=orthogonalEdgeStyle;rounded=0;orthogonalLoop=1;jettySize=auto;html=1;exitX=0.5;exitY=1;exitDx=0;exitDy=0;entryX=0.5;entryY=0;entryDx=0;entryDy=0;" edge="1" parent="1" source="nI0ptZJqEii6YHBotIrF-22" target="nI0ptZJqEii6YHBotIrF-23">
          <mxGeometry relative="1" as="geometry" />
        </mxCell>
        <mxCell id="nI0ptZJqEii6YHBotIrF-22" value="print h1 as n" style="shape=parallelogram;perimeter=parallelogramPerimeter;whiteSpace=wrap;html=1;fixedSize=1;" vertex="1" parent="1">
          <mxGeometry x="400" y="220" width="120" height="60" as="geometry" />
        </mxCell>
        <mxCell id="nI0ptZJqEii6YHBotIrF-51" style="edgeStyle=orthogonalEdgeStyle;rounded=0;orthogonalLoop=1;jettySize=auto;html=1;exitX=0.5;exitY=1;exitDx=0;exitDy=0;entryX=0.5;entryY=0;entryDx=0;entryDy=0;" edge="1" parent="1" source="nI0ptZJqEii6YHBotIrF-23" target="nI0ptZJqEii6YHBotIrF-20">
          <mxGeometry relative="1" as="geometry" />
        </mxCell>
        <mxCell id="nI0ptZJqEii6YHBotIrF-23" value="print h2 as n" style="shape=parallelogram;perimeter=parallelogramPerimeter;whiteSpace=wrap;html=1;fixedSize=1;" vertex="1" parent="1">
          <mxGeometry x="400" y="320" width="120" height="60" as="geometry" />
        </mxCell>
        <mxCell id="nI0ptZJqEii6YHBotIrF-54" style="edgeStyle=orthogonalEdgeStyle;rounded=0;orthogonalLoop=1;jettySize=auto;html=1;exitX=0.5;exitY=1;exitDx=0;exitDy=0;entryX=0.5;entryY=0;entryDx=0;entryDy=0;" edge="1" parent="1" source="nI0ptZJqEii6YHBotIrF-24" target="nI0ptZJqEii6YHBotIrF-25">
          <mxGeometry relative="1" as="geometry" />
        </mxCell>
        <mxCell id="nI0ptZJqEii6YHBotIrF-24" value="create tree" style="rounded=0;whiteSpace=wrap;html=1;" vertex="1" parent="1">
          <mxGeometry x="600" y="120" width="120" height="60" as="geometry" />
        </mxCell>
        <mxCell id="nI0ptZJqEii6YHBotIrF-55" style="edgeStyle=orthogonalEdgeStyle;rounded=0;orthogonalLoop=1;jettySize=auto;html=1;exitX=0.5;exitY=1;exitDx=0;exitDy=0;entryX=0.5;entryY=0;entryDx=0;entryDy=0;" edge="1" parent="1" source="nI0ptZJqEii6YHBotIrF-25" target="nI0ptZJqEii6YHBotIrF-26">
          <mxGeometry relative="1" as="geometry" />
        </mxCell>
        <mxCell id="nI0ptZJqEii6YHBotIrF-25" value="print tree" style="shape=parallelogram;perimeter=parallelogramPerimeter;whiteSpace=wrap;html=1;fixedSize=1;" vertex="1" parent="1">
          <mxGeometry x="600" y="220" width="120" height="60" as="geometry" />
        </mxCell>
        <mxCell id="nI0ptZJqEii6YHBotIrF-56" style="edgeStyle=orthogonalEdgeStyle;rounded=0;orthogonalLoop=1;jettySize=auto;html=1;exitX=0.5;exitY=1;exitDx=0;exitDy=0;" edge="1" parent="1" source="nI0ptZJqEii6YHBotIrF-26" target="nI0ptZJqEii6YHBotIrF-27">
          <mxGeometry relative="1" as="geometry" />
        </mxCell>
        <mxCell id="nI0ptZJqEii6YHBotIrF-26" value="tree = flip(tree)" style="shape=process;whiteSpace=wrap;html=1;backgroundOutline=1;" vertex="1" parent="1">
          <mxGeometry x="600" y="320" width="120" height="60" as="geometry" />
        </mxCell>
        <mxCell id="nI0ptZJqEii6YHBotIrF-57" style="edgeStyle=orthogonalEdgeStyle;rounded=0;orthogonalLoop=1;jettySize=auto;html=1;exitX=1;exitY=0.5;exitDx=0;exitDy=0;entryX=0;entryY=0.5;entryDx=0;entryDy=0;" edge="1" parent="1" source="nI0ptZJqEii6YHBotIrF-27" target="nI0ptZJqEii6YHBotIrF-28">
          <mxGeometry relative="1" as="geometry" />
        </mxCell>
        <mxCell id="nI0ptZJqEii6YHBotIrF-27" value="print tree" style="shape=parallelogram;perimeter=parallelogramPerimeter;whiteSpace=wrap;html=1;fixedSize=1;" vertex="1" parent="1">
          <mxGeometry x="600" y="420" width="120" height="60" as="geometry" />
        </mxCell>
        <mxCell id="nI0ptZJqEii6YHBotIrF-58" style="edgeStyle=orthogonalEdgeStyle;rounded=0;orthogonalLoop=1;jettySize=auto;html=1;exitX=0.5;exitY=1;exitDx=0;exitDy=0;entryX=0.5;entryY=0;entryDx=0;entryDy=0;" edge="1" parent="1" source="nI0ptZJqEii6YHBotIrF-28" target="nI0ptZJqEii6YHBotIrF-34">
          <mxGeometry relative="1" as="geometry" />
        </mxCell>
        <mxCell id="nI0ptZJqEii6YHBotIrF-28" value="tree = sum(tree)" style="shape=process;whiteSpace=wrap;html=1;backgroundOutline=1;" vertex="1" parent="1">
          <mxGeometry x="800" y="120" width="120" height="60" as="geometry" />
        </mxCell>
        <mxCell id="nI0ptZJqEii6YHBotIrF-30" value="2" style="text;html=1;align=center;verticalAlign=middle;resizable=0;points=[];autosize=1;strokeColor=none;fillColor=none;" vertex="1" parent="1">
          <mxGeometry x="246" y="88" width="30" height="30" as="geometry" />
        </mxCell>
        <mxCell id="nI0ptZJqEii6YHBotIrF-31" value="3" style="text;html=1;align=center;verticalAlign=middle;resizable=0;points=[];autosize=1;strokeColor=none;fillColor=none;" vertex="1" parent="1">
          <mxGeometry x="446" y="88" width="30" height="30" as="geometry" />
        </mxCell>
        <mxCell id="nI0ptZJqEii6YHBotIrF-32" value="4" style="text;html=1;align=center;verticalAlign=middle;resizable=0;points=[];autosize=1;strokeColor=none;fillColor=none;" vertex="1" parent="1">
          <mxGeometry x="646" y="88" width="30" height="30" as="geometry" />
        </mxCell>
        <mxCell id="nI0ptZJqEii6YHBotIrF-33" value="5" style="text;html=1;align=center;verticalAlign=middle;resizable=0;points=[];autosize=1;strokeColor=none;fillColor=none;" vertex="1" parent="1">
          <mxGeometry x="846" y="88" width="30" height="30" as="geometry" />
        </mxCell>
        <mxCell id="nI0ptZJqEii6YHBotIrF-59" style="edgeStyle=orthogonalEdgeStyle;rounded=0;orthogonalLoop=1;jettySize=auto;html=1;exitX=0.5;exitY=1;exitDx=0;exitDy=0;entryX=0.5;entryY=0;entryDx=0;entryDy=0;" edge="1" parent="1" source="nI0ptZJqEii6YHBotIrF-34" target="nI0ptZJqEii6YHBotIrF-35">
          <mxGeometry relative="1" as="geometry" />
        </mxCell>
        <mxCell id="nI0ptZJqEii6YHBotIrF-34" value="print tree" style="shape=parallelogram;perimeter=parallelogramPerimeter;whiteSpace=wrap;html=1;fixedSize=1;" vertex="1" parent="1">
          <mxGeometry x="800" y="220" width="120" height="60" as="geometry" />
        </mxCell>
        <mxCell id="nI0ptZJqEii6YHBotIrF-35" value="End" style="ellipse;whiteSpace=wrap;html=1;" vertex="1" parent="1">
          <mxGeometry x="800" y="320" width="120" height="80" as="geometry" />
        </mxCell>
        <mxCell id="nI0ptZJqEii6YHBotIrF-68" style="edgeStyle=orthogonalEdgeStyle;rounded=0;orthogonalLoop=1;jettySize=auto;html=1;exitX=0.5;exitY=1;exitDx=0;exitDy=0;entryX=0.5;entryY=0;entryDx=0;entryDy=0;" edge="1" parent="1" source="nI0ptZJqEii6YHBotIrF-60" target="nI0ptZJqEii6YHBotIrF-61">
          <mxGeometry relative="1" as="geometry" />
        </mxCell>
        <mxCell id="nI0ptZJqEii6YHBotIrF-60" value="reverse(head)" style="ellipse;whiteSpace=wrap;html=1;" vertex="1" parent="1">
          <mxGeometry x="1000" width="120" height="80" as="geometry" />
        </mxCell>
        <mxCell id="nI0ptZJqEii6YHBotIrF-69" style="edgeStyle=orthogonalEdgeStyle;rounded=0;orthogonalLoop=1;jettySize=auto;html=1;exitX=0.5;exitY=1;exitDx=0;exitDy=0;entryX=0.5;entryY=0;entryDx=0;entryDy=0;" edge="1" parent="1" source="nI0ptZJqEii6YHBotIrF-61" target="nI0ptZJqEii6YHBotIrF-62">
          <mxGeometry relative="1" as="geometry" />
        </mxCell>
        <mxCell id="nI0ptZJqEii6YHBotIrF-61" value="&lt;div&gt;prev, next = NULL&lt;/div&gt;&lt;div&gt;curr = head&lt;br&gt;&lt;/div&gt;" style="rounded=0;whiteSpace=wrap;html=1;" vertex="1" parent="1">
          <mxGeometry x="1000" y="120" width="120" height="60" as="geometry" />
        </mxCell>
        <mxCell id="nI0ptZJqEii6YHBotIrF-70" value="no" style="edgeStyle=orthogonalEdgeStyle;rounded=0;orthogonalLoop=1;jettySize=auto;html=1;exitX=0.5;exitY=1;exitDx=0;exitDy=0;entryX=0.5;entryY=0;entryDx=0;entryDy=0;" edge="1" parent="1" source="nI0ptZJqEii6YHBotIrF-62" target="nI0ptZJqEii6YHBotIrF-63">
          <mxGeometry relative="1" as="geometry" />
        </mxCell>
        <mxCell id="nI0ptZJqEii6YHBotIrF-71" style="edgeStyle=orthogonalEdgeStyle;rounded=0;orthogonalLoop=1;jettySize=auto;html=1;exitX=1;exitY=0.5;exitDx=0;exitDy=0;entryX=0.5;entryY=0;entryDx=0;entryDy=0;" edge="1" parent="1" source="nI0ptZJqEii6YHBotIrF-62" target="nI0ptZJqEii6YHBotIrF-67">
          <mxGeometry relative="1" as="geometry">
            <Array as="points">
              <mxPoint x="1140" y="260" />
              <mxPoint x="1140" y="700" />
              <mxPoint x="1060" y="700" />
            </Array>
          </mxGeometry>
        </mxCell>
        <mxCell id="nI0ptZJqEii6YHBotIrF-72" value="yes" style="edgeLabel;html=1;align=center;verticalAlign=middle;resizable=0;points=[];" vertex="1" connectable="0" parent="nI0ptZJqEii6YHBotIrF-71">
          <mxGeometry x="-0.931" y="-2" relative="1" as="geometry">
            <mxPoint as="offset" />
          </mxGeometry>
        </mxCell>
        <mxCell id="nI0ptZJqEii6YHBotIrF-62" value="is curr NULL" style="rhombus;whiteSpace=wrap;html=1;" vertex="1" parent="1">
          <mxGeometry x="1020" y="220" width="80" height="80" as="geometry" />
        </mxCell>
        <mxCell id="nI0ptZJqEii6YHBotIrF-73" style="edgeStyle=orthogonalEdgeStyle;rounded=0;orthogonalLoop=1;jettySize=auto;html=1;exitX=0.5;exitY=1;exitDx=0;exitDy=0;entryX=0.5;entryY=0;entryDx=0;entryDy=0;" edge="1" parent="1" source="nI0ptZJqEii6YHBotIrF-63" target="nI0ptZJqEii6YHBotIrF-64">
          <mxGeometry relative="1" as="geometry" />
        </mxCell>
        <mxCell id="nI0ptZJqEii6YHBotIrF-63" value="next = curr-&amp;gt;next" style="rounded=0;whiteSpace=wrap;html=1;" vertex="1" parent="1">
          <mxGeometry x="1000" y="320" width="120" height="60" as="geometry" />
        </mxCell>
        <mxCell id="nI0ptZJqEii6YHBotIrF-74" style="edgeStyle=orthogonalEdgeStyle;rounded=0;orthogonalLoop=1;jettySize=auto;html=1;exitX=0.5;exitY=1;exitDx=0;exitDy=0;entryX=0.5;entryY=0;entryDx=0;entryDy=0;" edge="1" parent="1" source="nI0ptZJqEii6YHBotIrF-64" target="nI0ptZJqEii6YHBotIrF-65">
          <mxGeometry relative="1" as="geometry" />
        </mxCell>
        <mxCell id="nI0ptZJqEii6YHBotIrF-64" value="curr-&amp;gt;next = prev" style="rounded=0;whiteSpace=wrap;html=1;" vertex="1" parent="1">
          <mxGeometry x="1000" y="420" width="120" height="60" as="geometry" />
        </mxCell>
        <mxCell id="nI0ptZJqEii6YHBotIrF-75" style="edgeStyle=orthogonalEdgeStyle;rounded=0;orthogonalLoop=1;jettySize=auto;html=1;exitX=0.5;exitY=1;exitDx=0;exitDy=0;entryX=0.5;entryY=0;entryDx=0;entryDy=0;" edge="1" parent="1" source="nI0ptZJqEii6YHBotIrF-65" target="nI0ptZJqEii6YHBotIrF-66">
          <mxGeometry relative="1" as="geometry" />
        </mxCell>
        <mxCell id="nI0ptZJqEii6YHBotIrF-65" value="prev = curr" style="rounded=0;whiteSpace=wrap;html=1;" vertex="1" parent="1">
          <mxGeometry x="1000" y="520" width="120" height="60" as="geometry" />
        </mxCell>
        <mxCell id="nI0ptZJqEii6YHBotIrF-76" style="edgeStyle=orthogonalEdgeStyle;rounded=0;orthogonalLoop=1;jettySize=auto;html=1;exitX=0;exitY=0.5;exitDx=0;exitDy=0;entryX=0;entryY=0.5;entryDx=0;entryDy=0;" edge="1" parent="1" source="nI0ptZJqEii6YHBotIrF-66" target="nI0ptZJqEii6YHBotIrF-62">
          <mxGeometry relative="1" as="geometry" />
        </mxCell>
        <mxCell id="nI0ptZJqEii6YHBotIrF-66" value="curr = next" style="rounded=0;whiteSpace=wrap;html=1;" vertex="1" parent="1">
          <mxGeometry x="1000" y="620" width="120" height="60" as="geometry" />
        </mxCell>
        <mxCell id="nI0ptZJqEii6YHBotIrF-67" value="return prev" style="ellipse;whiteSpace=wrap;html=1;" vertex="1" parent="1">
          <mxGeometry x="1000" y="720" width="120" height="80" as="geometry" />
        </mxCell>
        <mxCell id="nI0ptZJqEii6YHBotIrF-82" style="edgeStyle=orthogonalEdgeStyle;rounded=0;orthogonalLoop=1;jettySize=auto;html=1;exitX=0.5;exitY=1;exitDx=0;exitDy=0;entryX=0.5;entryY=0;entryDx=0;entryDy=0;" edge="1" parent="1" source="nI0ptZJqEii6YHBotIrF-77" target="nI0ptZJqEii6YHBotIrF-79">
          <mxGeometry relative="1" as="geometry" />
        </mxCell>
        <mxCell id="nI0ptZJqEii6YHBotIrF-77" value="print(head)" style="ellipse;whiteSpace=wrap;html=1;" vertex="1" parent="1">
          <mxGeometry x="1200" width="120" height="80" as="geometry" />
        </mxCell>
        <mxCell id="nI0ptZJqEii6YHBotIrF-83" value="no" style="edgeStyle=orthogonalEdgeStyle;rounded=0;orthogonalLoop=1;jettySize=auto;html=1;exitX=0.5;exitY=1;exitDx=0;exitDy=0;entryX=0.5;entryY=0;entryDx=0;entryDy=0;" edge="1" parent="1" source="nI0ptZJqEii6YHBotIrF-79" target="nI0ptZJqEii6YHBotIrF-80">
          <mxGeometry relative="1" as="geometry" />
        </mxCell>
        <mxCell id="nI0ptZJqEii6YHBotIrF-87" style="edgeStyle=orthogonalEdgeStyle;rounded=0;orthogonalLoop=1;jettySize=auto;html=1;exitX=1;exitY=0.5;exitDx=0;exitDy=0;entryX=0.5;entryY=0;entryDx=0;entryDy=0;" edge="1" parent="1" source="nI0ptZJqEii6YHBotIrF-79" target="nI0ptZJqEii6YHBotIrF-86">
          <mxGeometry relative="1" as="geometry">
            <Array as="points">
              <mxPoint x="1340" y="160" />
              <mxPoint x="1340" y="400" />
              <mxPoint x="1260" y="400" />
            </Array>
          </mxGeometry>
        </mxCell>
        <mxCell id="nI0ptZJqEii6YHBotIrF-88" value="yes" style="edgeLabel;html=1;align=center;verticalAlign=middle;resizable=0;points=[];" vertex="1" connectable="0" parent="nI0ptZJqEii6YHBotIrF-87">
          <mxGeometry x="-0.9" y="3" relative="1" as="geometry">
            <mxPoint as="offset" />
          </mxGeometry>
        </mxCell>
        <mxCell id="nI0ptZJqEii6YHBotIrF-79" value="is head NULL" style="rhombus;whiteSpace=wrap;html=1;" vertex="1" parent="1">
          <mxGeometry x="1220" y="120" width="80" height="80" as="geometry" />
        </mxCell>
        <mxCell id="nI0ptZJqEii6YHBotIrF-84" style="edgeStyle=orthogonalEdgeStyle;rounded=0;orthogonalLoop=1;jettySize=auto;html=1;exitX=0.5;exitY=1;exitDx=0;exitDy=0;entryX=0.5;entryY=0;entryDx=0;entryDy=0;" edge="1" parent="1" source="nI0ptZJqEii6YHBotIrF-80" target="nI0ptZJqEii6YHBotIrF-81">
          <mxGeometry relative="1" as="geometry" />
        </mxCell>
        <mxCell id="nI0ptZJqEii6YHBotIrF-80" value="print head-&amp;gt;value" style="shape=parallelogram;perimeter=parallelogramPerimeter;whiteSpace=wrap;html=1;fixedSize=1;" vertex="1" parent="1">
          <mxGeometry x="1200" y="220" width="120" height="60" as="geometry" />
        </mxCell>
        <mxCell id="nI0ptZJqEii6YHBotIrF-85" style="edgeStyle=orthogonalEdgeStyle;rounded=0;orthogonalLoop=1;jettySize=auto;html=1;exitX=0;exitY=0.5;exitDx=0;exitDy=0;entryX=0;entryY=0.5;entryDx=0;entryDy=0;" edge="1" parent="1" source="nI0ptZJqEii6YHBotIrF-81" target="nI0ptZJqEii6YHBotIrF-79">
          <mxGeometry relative="1" as="geometry" />
        </mxCell>
        <mxCell id="nI0ptZJqEii6YHBotIrF-81" value="head = head-&amp;gt;next" style="rounded=0;whiteSpace=wrap;html=1;" vertex="1" parent="1">
          <mxGeometry x="1200" y="320" width="120" height="60" as="geometry" />
        </mxCell>
        <mxCell id="nI0ptZJqEii6YHBotIrF-86" value="return" style="ellipse;whiteSpace=wrap;html=1;" vertex="1" parent="1">
          <mxGeometry x="1200" y="420" width="120" height="80" as="geometry" />
        </mxCell>
        <mxCell id="nI0ptZJqEii6YHBotIrF-94" style="edgeStyle=orthogonalEdgeStyle;rounded=0;orthogonalLoop=1;jettySize=auto;html=1;exitX=0.5;exitY=1;exitDx=0;exitDy=0;entryX=0.5;entryY=0;entryDx=0;entryDy=0;" edge="1" parent="1" source="nI0ptZJqEii6YHBotIrF-89" target="nI0ptZJqEii6YHBotIrF-90">
          <mxGeometry relative="1" as="geometry" />
        </mxCell>
        <mxCell id="nI0ptZJqEii6YHBotIrF-89" value="print_reversed(head)" style="ellipse;whiteSpace=wrap;html=1;" vertex="1" parent="1">
          <mxGeometry x="1400" width="120" height="80" as="geometry" />
        </mxCell>
        <mxCell id="nI0ptZJqEii6YHBotIrF-95" style="edgeStyle=orthogonalEdgeStyle;rounded=0;orthogonalLoop=1;jettySize=auto;html=1;exitX=0.5;exitY=1;exitDx=0;exitDy=0;entryX=0.5;entryY=0;entryDx=0;entryDy=0;" edge="1" parent="1" source="nI0ptZJqEii6YHBotIrF-90" target="nI0ptZJqEii6YHBotIrF-91">
          <mxGeometry relative="1" as="geometry" />
        </mxCell>
        <mxCell id="nI0ptZJqEii6YHBotIrF-90" value="head = reverse(head)" style="shape=process;whiteSpace=wrap;html=1;backgroundOutline=1;" vertex="1" parent="1">
          <mxGeometry x="1400" y="120" width="120" height="60" as="geometry" />
        </mxCell>
        <mxCell id="nI0ptZJqEii6YHBotIrF-96" style="edgeStyle=orthogonalEdgeStyle;rounded=0;orthogonalLoop=1;jettySize=auto;html=1;exitX=0.5;exitY=1;exitDx=0;exitDy=0;entryX=0.5;entryY=0;entryDx=0;entryDy=0;" edge="1" parent="1" source="nI0ptZJqEii6YHBotIrF-91" target="nI0ptZJqEii6YHBotIrF-92">
          <mxGeometry relative="1" as="geometry" />
        </mxCell>
        <mxCell id="nI0ptZJqEii6YHBotIrF-91" value="print head" style="shape=parallelogram;perimeter=parallelogramPerimeter;whiteSpace=wrap;html=1;fixedSize=1;" vertex="1" parent="1">
          <mxGeometry x="1400" y="220" width="120" height="60" as="geometry" />
        </mxCell>
        <mxCell id="nI0ptZJqEii6YHBotIrF-97" style="edgeStyle=orthogonalEdgeStyle;rounded=0;orthogonalLoop=1;jettySize=auto;html=1;exitX=0.5;exitY=1;exitDx=0;exitDy=0;entryX=0.5;entryY=0;entryDx=0;entryDy=0;" edge="1" parent="1" source="nI0ptZJqEii6YHBotIrF-92" target="nI0ptZJqEii6YHBotIrF-93">
          <mxGeometry relative="1" as="geometry" />
        </mxCell>
        <mxCell id="nI0ptZJqEii6YHBotIrF-92" value="head = reverse(head)" style="shape=process;whiteSpace=wrap;html=1;backgroundOutline=1;" vertex="1" parent="1">
          <mxGeometry x="1400" y="320" width="120" height="60" as="geometry" />
        </mxCell>
        <mxCell id="nI0ptZJqEii6YHBotIrF-93" value="return" style="ellipse;whiteSpace=wrap;html=1;" vertex="1" parent="1">
          <mxGeometry x="1400" y="420" width="120" height="80" as="geometry" />
        </mxCell>
        <mxCell id="nI0ptZJqEii6YHBotIrF-102" style="edgeStyle=orthogonalEdgeStyle;rounded=0;orthogonalLoop=1;jettySize=auto;html=1;exitX=0.5;exitY=1;exitDx=0;exitDy=0;entryX=0.5;entryY=0;entryDx=0;entryDy=0;" edge="1" parent="1" source="nI0ptZJqEii6YHBotIrF-98" target="nI0ptZJqEii6YHBotIrF-99">
          <mxGeometry relative="1" as="geometry" />
        </mxCell>
        <mxCell id="nI0ptZJqEii6YHBotIrF-98" value="compare(h1, h2)" style="ellipse;whiteSpace=wrap;html=1;" vertex="1" parent="1">
          <mxGeometry x="1600" width="120" height="80" as="geometry" />
        </mxCell>
        <mxCell id="nI0ptZJqEii6YHBotIrF-101" value="yes" style="edgeStyle=orthogonalEdgeStyle;rounded=0;orthogonalLoop=1;jettySize=auto;html=1;exitX=1;exitY=0.5;exitDx=0;exitDy=0;entryX=0;entryY=0.5;entryDx=0;entryDy=0;" edge="1" parent="1" source="nI0ptZJqEii6YHBotIrF-99" target="nI0ptZJqEii6YHBotIrF-100">
          <mxGeometry relative="1" as="geometry" />
        </mxCell>
        <mxCell id="nI0ptZJqEii6YHBotIrF-105" value="no" style="edgeStyle=orthogonalEdgeStyle;rounded=0;orthogonalLoop=1;jettySize=auto;html=1;exitX=0.5;exitY=1;exitDx=0;exitDy=0;entryX=0.5;entryY=0;entryDx=0;entryDy=0;" edge="1" parent="1" source="nI0ptZJqEii6YHBotIrF-99" target="nI0ptZJqEii6YHBotIrF-103">
          <mxGeometry relative="1" as="geometry" />
        </mxCell>
        <mxCell id="nI0ptZJqEii6YHBotIrF-99" value="are both h1-&amp;gt;next and h2-&amp;gt;next null" style="rhombus;whiteSpace=wrap;html=1;" vertex="1" parent="1">
          <mxGeometry x="1600" y="120" width="120" height="80" as="geometry" />
        </mxCell>
        <mxCell id="nI0ptZJqEii6YHBotIrF-100" value="return h1-&amp;gt;value == h2-&amp;gt;value" style="ellipse;whiteSpace=wrap;html=1;" vertex="1" parent="1">
          <mxGeometry x="1760" y="120" width="120" height="80" as="geometry" />
        </mxCell>
        <mxCell id="nI0ptZJqEii6YHBotIrF-107" value="yes" style="edgeStyle=orthogonalEdgeStyle;rounded=0;orthogonalLoop=1;jettySize=auto;html=1;exitX=1;exitY=0.5;exitDx=0;exitDy=0;entryX=0;entryY=0.5;entryDx=0;entryDy=0;" edge="1" parent="1" source="nI0ptZJqEii6YHBotIrF-103" target="nI0ptZJqEii6YHBotIrF-104">
          <mxGeometry relative="1" as="geometry" />
        </mxCell>
        <mxCell id="nI0ptZJqEii6YHBotIrF-110" value="no" style="edgeStyle=orthogonalEdgeStyle;rounded=0;orthogonalLoop=1;jettySize=auto;html=1;exitX=0.5;exitY=1;exitDx=0;exitDy=0;entryX=0.5;entryY=0;entryDx=0;entryDy=0;" edge="1" parent="1" source="nI0ptZJqEii6YHBotIrF-103" target="nI0ptZJqEii6YHBotIrF-108">
          <mxGeometry relative="1" as="geometry" />
        </mxCell>
        <mxCell id="nI0ptZJqEii6YHBotIrF-103" value="is one of h1-&amp;gt;next and h2-&amp;gt;next null" style="rhombus;whiteSpace=wrap;html=1;" vertex="1" parent="1">
          <mxGeometry x="1600" y="220" width="120" height="80" as="geometry" />
        </mxCell>
        <mxCell id="nI0ptZJqEii6YHBotIrF-104" value="return false" style="ellipse;whiteSpace=wrap;html=1;" vertex="1" parent="1">
          <mxGeometry x="1760" y="220" width="120" height="80" as="geometry" />
        </mxCell>
        <mxCell id="nI0ptZJqEii6YHBotIrF-111" style="edgeStyle=orthogonalEdgeStyle;rounded=0;orthogonalLoop=1;jettySize=auto;html=1;exitX=0.5;exitY=1;exitDx=0;exitDy=0;entryX=0.5;entryY=0;entryDx=0;entryDy=0;" edge="1" parent="1" source="nI0ptZJqEii6YHBotIrF-108" target="nI0ptZJqEii6YHBotIrF-109">
          <mxGeometry relative="1" as="geometry" />
        </mxCell>
        <mxCell id="nI0ptZJqEii6YHBotIrF-108" value="compare(h1-&amp;gt;next, h2-&amp;gt;next)" style="shape=process;whiteSpace=wrap;html=1;backgroundOutline=1;" vertex="1" parent="1">
          <mxGeometry x="1600" y="320" width="120" height="60" as="geometry" />
        </mxCell>
        <mxCell id="nI0ptZJqEii6YHBotIrF-109" value="return result" style="ellipse;whiteSpace=wrap;html=1;" vertex="1" parent="1">
          <mxGeometry x="1600" y="420" width="120" height="80" as="geometry" />
        </mxCell>
        <mxCell id="nI0ptZJqEii6YHBotIrF-136" style="edgeStyle=orthogonalEdgeStyle;rounded=0;orthogonalLoop=1;jettySize=auto;html=1;exitX=0.5;exitY=1;exitDx=0;exitDy=0;entryX=0.5;entryY=0;entryDx=0;entryDy=0;" edge="1" parent="1" source="nI0ptZJqEii6YHBotIrF-112" target="nI0ptZJqEii6YHBotIrF-113">
          <mxGeometry relative="1" as="geometry" />
        </mxCell>
        <mxCell id="nI0ptZJqEii6YHBotIrF-112" value="add(n1, n2)" style="ellipse;whiteSpace=wrap;html=1;" vertex="1" parent="1">
          <mxGeometry x="1960" width="120" height="80" as="geometry" />
        </mxCell>
        <mxCell id="nI0ptZJqEii6YHBotIrF-135" style="edgeStyle=orthogonalEdgeStyle;rounded=0;orthogonalLoop=1;jettySize=auto;html=1;exitX=0.5;exitY=1;exitDx=0;exitDy=0;entryX=0.5;entryY=0;entryDx=0;entryDy=0;" edge="1" parent="1" source="nI0ptZJqEii6YHBotIrF-113" target="nI0ptZJqEii6YHBotIrF-114">
          <mxGeometry relative="1" as="geometry" />
        </mxCell>
        <mxCell id="nI0ptZJqEii6YHBotIrF-113" value="&lt;div&gt;head = {0, NULL)&lt;/div&gt;&lt;div&gt;n = head&lt;br&gt;&lt;/div&gt;" style="rounded=0;whiteSpace=wrap;html=1;" vertex="1" parent="1">
          <mxGeometry x="1960" y="120" width="120" height="60" as="geometry" />
        </mxCell>
        <mxCell id="nI0ptZJqEii6YHBotIrF-134" style="edgeStyle=orthogonalEdgeStyle;rounded=0;orthogonalLoop=1;jettySize=auto;html=1;exitX=0.5;exitY=1;exitDx=0;exitDy=0;entryX=0.5;entryY=0;entryDx=0;entryDy=0;" edge="1" parent="1" source="nI0ptZJqEii6YHBotIrF-114" target="nI0ptZJqEii6YHBotIrF-115">
          <mxGeometry relative="1" as="geometry" />
        </mxCell>
        <mxCell id="nI0ptZJqEii6YHBotIrF-114" value="carry = 0" style="rounded=0;whiteSpace=wrap;html=1;" vertex="1" parent="1">
          <mxGeometry x="1960" y="220" width="120" height="60" as="geometry" />
        </mxCell>
        <mxCell id="nI0ptZJqEii6YHBotIrF-131" value="no" style="edgeStyle=orthogonalEdgeStyle;rounded=0;orthogonalLoop=1;jettySize=auto;html=1;exitX=0.5;exitY=1;exitDx=0;exitDy=0;entryX=0.5;entryY=0;entryDx=0;entryDy=0;" edge="1" parent="1" source="nI0ptZJqEii6YHBotIrF-115" target="nI0ptZJqEii6YHBotIrF-116">
          <mxGeometry relative="1" as="geometry" />
        </mxCell>
        <mxCell id="nI0ptZJqEii6YHBotIrF-138" style="edgeStyle=orthogonalEdgeStyle;rounded=0;orthogonalLoop=1;jettySize=auto;html=1;exitX=1;exitY=0.5;exitDx=0;exitDy=0;entryX=0.5;entryY=0;entryDx=0;entryDy=0;" edge="1" parent="1" source="nI0ptZJqEii6YHBotIrF-115" target="nI0ptZJqEii6YHBotIrF-137">
          <mxGeometry relative="1" as="geometry" />
        </mxCell>
        <mxCell id="nI0ptZJqEii6YHBotIrF-139" value="yes" style="edgeLabel;html=1;align=center;verticalAlign=middle;resizable=0;points=[];" vertex="1" connectable="0" parent="nI0ptZJqEii6YHBotIrF-138">
          <mxGeometry x="-0.9058" y="-2" relative="1" as="geometry">
            <mxPoint as="offset" />
          </mxGeometry>
        </mxCell>
        <mxCell id="nI0ptZJqEii6YHBotIrF-115" value="are either of n1 or n2 null" style="rhombus;whiteSpace=wrap;html=1;" vertex="1" parent="1">
          <mxGeometry x="1960" y="320" width="120" height="80" as="geometry" />
        </mxCell>
        <mxCell id="nI0ptZJqEii6YHBotIrF-130" style="edgeStyle=orthogonalEdgeStyle;rounded=0;orthogonalLoop=1;jettySize=auto;html=1;exitX=0.5;exitY=1;exitDx=0;exitDy=0;entryX=0.5;entryY=0;entryDx=0;entryDy=0;" edge="1" parent="1" source="nI0ptZJqEii6YHBotIrF-116" target="nI0ptZJqEii6YHBotIrF-117">
          <mxGeometry relative="1" as="geometry" />
        </mxCell>
        <mxCell id="nI0ptZJqEii6YHBotIrF-116" value="n-&amp;gt;value = n1 + n2 + carry" style="rounded=0;whiteSpace=wrap;html=1;" vertex="1" parent="1">
          <mxGeometry x="1960" y="420" width="120" height="60" as="geometry" />
        </mxCell>
        <mxCell id="nI0ptZJqEii6YHBotIrF-122" style="edgeStyle=orthogonalEdgeStyle;rounded=0;orthogonalLoop=1;jettySize=auto;html=1;exitX=1;exitY=0.5;exitDx=0;exitDy=0;entryX=0.5;entryY=0;entryDx=0;entryDy=0;" edge="1" parent="1" source="nI0ptZJqEii6YHBotIrF-117" target="nI0ptZJqEii6YHBotIrF-121">
          <mxGeometry relative="1" as="geometry" />
        </mxCell>
        <mxCell id="nI0ptZJqEii6YHBotIrF-123" value="no" style="edgeLabel;html=1;align=center;verticalAlign=middle;resizable=0;points=[];" vertex="1" connectable="0" parent="nI0ptZJqEii6YHBotIrF-122">
          <mxGeometry x="-0.7703" y="2" relative="1" as="geometry">
            <mxPoint as="offset" />
          </mxGeometry>
        </mxCell>
        <mxCell id="nI0ptZJqEii6YHBotIrF-124" value="yes" style="edgeStyle=orthogonalEdgeStyle;rounded=0;orthogonalLoop=1;jettySize=auto;html=1;exitX=0.5;exitY=1;exitDx=0;exitDy=0;entryX=0.5;entryY=0;entryDx=0;entryDy=0;" edge="1" parent="1" source="nI0ptZJqEii6YHBotIrF-117" target="nI0ptZJqEii6YHBotIrF-118">
          <mxGeometry relative="1" as="geometry" />
        </mxCell>
        <mxCell id="nI0ptZJqEii6YHBotIrF-117" value="n-&amp;gt;value &amp;gt; 9" style="rhombus;whiteSpace=wrap;html=1;" vertex="1" parent="1">
          <mxGeometry x="1980" y="520" width="80" height="80" as="geometry" />
        </mxCell>
        <mxCell id="nI0ptZJqEii6YHBotIrF-125" style="edgeStyle=orthogonalEdgeStyle;rounded=0;orthogonalLoop=1;jettySize=auto;html=1;exitX=0.5;exitY=1;exitDx=0;exitDy=0;entryX=0.5;entryY=0;entryDx=0;entryDy=0;" edge="1" parent="1" source="nI0ptZJqEii6YHBotIrF-118" target="nI0ptZJqEii6YHBotIrF-119">
          <mxGeometry relative="1" as="geometry" />
        </mxCell>
        <mxCell id="nI0ptZJqEii6YHBotIrF-118" value="carry = n-&amp;gt;value / 10" style="rounded=0;whiteSpace=wrap;html=1;" vertex="1" parent="1">
          <mxGeometry x="1960" y="620" width="120" height="60" as="geometry" />
        </mxCell>
        <mxCell id="nI0ptZJqEii6YHBotIrF-128" style="edgeStyle=orthogonalEdgeStyle;rounded=0;orthogonalLoop=1;jettySize=auto;html=1;exitX=0.5;exitY=1;exitDx=0;exitDy=0;entryX=0.5;entryY=0;entryDx=0;entryDy=0;" edge="1" parent="1" source="nI0ptZJqEii6YHBotIrF-119" target="nI0ptZJqEii6YHBotIrF-126">
          <mxGeometry relative="1" as="geometry" />
        </mxCell>
        <mxCell id="nI0ptZJqEii6YHBotIrF-119" value="n-&amp;gt;value -= 10" style="rounded=0;whiteSpace=wrap;html=1;" vertex="1" parent="1">
          <mxGeometry x="1960" y="720" width="120" height="60" as="geometry" />
        </mxCell>
        <mxCell id="nI0ptZJqEii6YHBotIrF-132" style="edgeStyle=orthogonalEdgeStyle;rounded=0;orthogonalLoop=1;jettySize=auto;html=1;exitX=0.5;exitY=1;exitDx=0;exitDy=0;entryX=1;entryY=0.5;entryDx=0;entryDy=0;" edge="1" parent="1" source="nI0ptZJqEii6YHBotIrF-121" target="nI0ptZJqEii6YHBotIrF-126">
          <mxGeometry relative="1" as="geometry" />
        </mxCell>
        <mxCell id="nI0ptZJqEii6YHBotIrF-121" value="carry = 0" style="rounded=0;whiteSpace=wrap;html=1;" vertex="1" parent="1">
          <mxGeometry x="2120" y="620" width="120" height="60" as="geometry" />
        </mxCell>
        <mxCell id="nI0ptZJqEii6YHBotIrF-129" style="edgeStyle=orthogonalEdgeStyle;rounded=0;orthogonalLoop=1;jettySize=auto;html=1;exitX=0.5;exitY=1;exitDx=0;exitDy=0;entryX=0.5;entryY=0;entryDx=0;entryDy=0;" edge="1" parent="1" source="nI0ptZJqEii6YHBotIrF-126" target="nI0ptZJqEii6YHBotIrF-127">
          <mxGeometry relative="1" as="geometry" />
        </mxCell>
        <mxCell id="nI0ptZJqEii6YHBotIrF-126" value="create n-&amp;gt;next" style="rounded=0;whiteSpace=wrap;html=1;" vertex="1" parent="1">
          <mxGeometry x="1960" y="820" width="120" height="60" as="geometry" />
        </mxCell>
        <mxCell id="nI0ptZJqEii6YHBotIrF-133" style="edgeStyle=orthogonalEdgeStyle;rounded=0;orthogonalLoop=1;jettySize=auto;html=1;exitX=0;exitY=0.5;exitDx=0;exitDy=0;entryX=0;entryY=0.5;entryDx=0;entryDy=0;" edge="1" parent="1" source="nI0ptZJqEii6YHBotIrF-127" target="nI0ptZJqEii6YHBotIrF-115">
          <mxGeometry relative="1" as="geometry" />
        </mxCell>
        <mxCell id="nI0ptZJqEii6YHBotIrF-127" value="advance n, n1, n2 forward" style="rounded=0;whiteSpace=wrap;html=1;" vertex="1" parent="1">
          <mxGeometry x="1960" y="920" width="120" height="60" as="geometry" />
        </mxCell>
        <mxCell id="nI0ptZJqEii6YHBotIrF-155" style="edgeStyle=orthogonalEdgeStyle;rounded=0;orthogonalLoop=1;jettySize=auto;html=1;exitX=0.5;exitY=1;exitDx=0;exitDy=0;entryX=0.5;entryY=0;entryDx=0;entryDy=0;" edge="1" parent="1" source="nI0ptZJqEii6YHBotIrF-137" target="nI0ptZJqEii6YHBotIrF-141">
          <mxGeometry relative="1" as="geometry" />
        </mxCell>
        <mxCell id="nI0ptZJqEii6YHBotIrF-156" value="no" style="edgeLabel;html=1;align=center;verticalAlign=middle;resizable=0;points=[];" vertex="1" connectable="0" parent="nI0ptZJqEii6YHBotIrF-155">
          <mxGeometry x="-0.5286" y="2" relative="1" as="geometry">
            <mxPoint as="offset" />
          </mxGeometry>
        </mxCell>
        <mxCell id="nI0ptZJqEii6YHBotIrF-177" style="edgeStyle=orthogonalEdgeStyle;rounded=0;orthogonalLoop=1;jettySize=auto;html=1;exitX=1;exitY=0.5;exitDx=0;exitDy=0;entryX=0.5;entryY=0;entryDx=0;entryDy=0;" edge="1" parent="1" source="nI0ptZJqEii6YHBotIrF-137" target="nI0ptZJqEii6YHBotIrF-160">
          <mxGeometry relative="1" as="geometry" />
        </mxCell>
        <mxCell id="nI0ptZJqEii6YHBotIrF-178" value="yes" style="edgeLabel;html=1;align=center;verticalAlign=middle;resizable=0;points=[];" vertex="1" connectable="0" parent="nI0ptZJqEii6YHBotIrF-177">
          <mxGeometry x="-0.8905" y="3" relative="1" as="geometry">
            <mxPoint as="offset" />
          </mxGeometry>
        </mxCell>
        <mxCell id="nI0ptZJqEii6YHBotIrF-137" value="is n1 null" style="rhombus;whiteSpace=wrap;html=1;" vertex="1" parent="1">
          <mxGeometry x="2300" y="120" width="80" height="80" as="geometry" />
        </mxCell>
        <mxCell id="nI0ptZJqEii6YHBotIrF-140" style="edgeStyle=orthogonalEdgeStyle;rounded=0;orthogonalLoop=1;jettySize=auto;html=1;exitX=0.5;exitY=1;exitDx=0;exitDy=0;entryX=0.5;entryY=0;entryDx=0;entryDy=0;" edge="1" parent="1" source="nI0ptZJqEii6YHBotIrF-141" target="nI0ptZJqEii6YHBotIrF-145">
          <mxGeometry relative="1" as="geometry" />
        </mxCell>
        <mxCell id="nI0ptZJqEii6YHBotIrF-141" value="n-&amp;gt;value = n1 + carry" style="rounded=0;whiteSpace=wrap;html=1;" vertex="1" parent="1">
          <mxGeometry x="2280" y="220" width="120" height="60" as="geometry" />
        </mxCell>
        <mxCell id="nI0ptZJqEii6YHBotIrF-142" style="edgeStyle=orthogonalEdgeStyle;rounded=0;orthogonalLoop=1;jettySize=auto;html=1;exitX=1;exitY=0.5;exitDx=0;exitDy=0;entryX=0.5;entryY=0;entryDx=0;entryDy=0;" edge="1" parent="1" source="nI0ptZJqEii6YHBotIrF-145" target="nI0ptZJqEii6YHBotIrF-151">
          <mxGeometry relative="1" as="geometry" />
        </mxCell>
        <mxCell id="nI0ptZJqEii6YHBotIrF-143" value="no" style="edgeLabel;html=1;align=center;verticalAlign=middle;resizable=0;points=[];" vertex="1" connectable="0" parent="nI0ptZJqEii6YHBotIrF-142">
          <mxGeometry x="-0.7703" y="2" relative="1" as="geometry">
            <mxPoint as="offset" />
          </mxGeometry>
        </mxCell>
        <mxCell id="nI0ptZJqEii6YHBotIrF-144" value="yes" style="edgeStyle=orthogonalEdgeStyle;rounded=0;orthogonalLoop=1;jettySize=auto;html=1;exitX=0.5;exitY=1;exitDx=0;exitDy=0;entryX=0.5;entryY=0;entryDx=0;entryDy=0;" edge="1" parent="1" source="nI0ptZJqEii6YHBotIrF-145" target="nI0ptZJqEii6YHBotIrF-147">
          <mxGeometry relative="1" as="geometry" />
        </mxCell>
        <mxCell id="nI0ptZJqEii6YHBotIrF-145" value="n-&amp;gt;value &amp;gt; 9" style="rhombus;whiteSpace=wrap;html=1;" vertex="1" parent="1">
          <mxGeometry x="2300" y="320" width="80" height="80" as="geometry" />
        </mxCell>
        <mxCell id="nI0ptZJqEii6YHBotIrF-146" style="edgeStyle=orthogonalEdgeStyle;rounded=0;orthogonalLoop=1;jettySize=auto;html=1;exitX=0.5;exitY=1;exitDx=0;exitDy=0;entryX=0.5;entryY=0;entryDx=0;entryDy=0;" edge="1" parent="1" source="nI0ptZJqEii6YHBotIrF-147" target="nI0ptZJqEii6YHBotIrF-149">
          <mxGeometry relative="1" as="geometry" />
        </mxCell>
        <mxCell id="nI0ptZJqEii6YHBotIrF-147" value="carry = n-&amp;gt;value / 10" style="rounded=0;whiteSpace=wrap;html=1;" vertex="1" parent="1">
          <mxGeometry x="2280" y="420" width="120" height="60" as="geometry" />
        </mxCell>
        <mxCell id="nI0ptZJqEii6YHBotIrF-148" style="edgeStyle=orthogonalEdgeStyle;rounded=0;orthogonalLoop=1;jettySize=auto;html=1;exitX=0.5;exitY=1;exitDx=0;exitDy=0;entryX=0.5;entryY=0;entryDx=0;entryDy=0;" edge="1" parent="1" source="nI0ptZJqEii6YHBotIrF-149" target="nI0ptZJqEii6YHBotIrF-153">
          <mxGeometry relative="1" as="geometry" />
        </mxCell>
        <mxCell id="nI0ptZJqEii6YHBotIrF-149" value="n-&amp;gt;value -= 10" style="rounded=0;whiteSpace=wrap;html=1;" vertex="1" parent="1">
          <mxGeometry x="2280" y="520" width="120" height="60" as="geometry" />
        </mxCell>
        <mxCell id="nI0ptZJqEii6YHBotIrF-150" style="edgeStyle=orthogonalEdgeStyle;rounded=0;orthogonalLoop=1;jettySize=auto;html=1;exitX=0.5;exitY=1;exitDx=0;exitDy=0;entryX=1;entryY=0.5;entryDx=0;entryDy=0;" edge="1" parent="1" source="nI0ptZJqEii6YHBotIrF-151" target="nI0ptZJqEii6YHBotIrF-153">
          <mxGeometry relative="1" as="geometry" />
        </mxCell>
        <mxCell id="nI0ptZJqEii6YHBotIrF-151" value="carry = 0" style="rounded=0;whiteSpace=wrap;html=1;" vertex="1" parent="1">
          <mxGeometry x="2440" y="420" width="120" height="60" as="geometry" />
        </mxCell>
        <mxCell id="nI0ptZJqEii6YHBotIrF-152" style="edgeStyle=orthogonalEdgeStyle;rounded=0;orthogonalLoop=1;jettySize=auto;html=1;exitX=0.5;exitY=1;exitDx=0;exitDy=0;entryX=0.5;entryY=0;entryDx=0;entryDy=0;" edge="1" parent="1" source="nI0ptZJqEii6YHBotIrF-153" target="nI0ptZJqEii6YHBotIrF-154">
          <mxGeometry relative="1" as="geometry" />
        </mxCell>
        <mxCell id="nI0ptZJqEii6YHBotIrF-153" value="create n-&amp;gt;next" style="rounded=0;whiteSpace=wrap;html=1;" vertex="1" parent="1">
          <mxGeometry x="2280" y="620" width="120" height="60" as="geometry" />
        </mxCell>
        <mxCell id="nI0ptZJqEii6YHBotIrF-157" style="edgeStyle=orthogonalEdgeStyle;rounded=0;orthogonalLoop=1;jettySize=auto;html=1;exitX=0;exitY=0.5;exitDx=0;exitDy=0;entryX=0;entryY=0.5;entryDx=0;entryDy=0;" edge="1" parent="1" source="nI0ptZJqEii6YHBotIrF-154" target="nI0ptZJqEii6YHBotIrF-137">
          <mxGeometry relative="1" as="geometry" />
        </mxCell>
        <mxCell id="nI0ptZJqEii6YHBotIrF-154" value="advance n, n1 forward" style="rounded=0;whiteSpace=wrap;html=1;" vertex="1" parent="1">
          <mxGeometry x="2280" y="720" width="120" height="60" as="geometry" />
        </mxCell>
        <mxCell id="nI0ptZJqEii6YHBotIrF-158" style="edgeStyle=orthogonalEdgeStyle;rounded=0;orthogonalLoop=1;jettySize=auto;html=1;exitX=0.5;exitY=1;exitDx=0;exitDy=0;entryX=0.5;entryY=0;entryDx=0;entryDy=0;" edge="1" parent="1" source="nI0ptZJqEii6YHBotIrF-160" target="nI0ptZJqEii6YHBotIrF-162">
          <mxGeometry relative="1" as="geometry" />
        </mxCell>
        <mxCell id="nI0ptZJqEii6YHBotIrF-159" value="no" style="edgeLabel;html=1;align=center;verticalAlign=middle;resizable=0;points=[];" vertex="1" connectable="0" parent="nI0ptZJqEii6YHBotIrF-158">
          <mxGeometry x="-0.5286" y="2" relative="1" as="geometry">
            <mxPoint as="offset" />
          </mxGeometry>
        </mxCell>
        <mxCell id="nI0ptZJqEii6YHBotIrF-181" style="edgeStyle=orthogonalEdgeStyle;rounded=0;orthogonalLoop=1;jettySize=auto;html=1;exitX=1;exitY=0.5;exitDx=0;exitDy=0;entryX=0;entryY=0.5;entryDx=0;entryDy=0;" edge="1" parent="1" source="nI0ptZJqEii6YHBotIrF-160" target="nI0ptZJqEii6YHBotIrF-179">
          <mxGeometry relative="1" as="geometry" />
        </mxCell>
        <mxCell id="nI0ptZJqEii6YHBotIrF-182" value="yes" style="edgeLabel;html=1;align=center;verticalAlign=middle;resizable=0;points=[];" vertex="1" connectable="0" parent="nI0ptZJqEii6YHBotIrF-181">
          <mxGeometry x="-0.8675" y="2" relative="1" as="geometry">
            <mxPoint as="offset" />
          </mxGeometry>
        </mxCell>
        <mxCell id="nI0ptZJqEii6YHBotIrF-160" value="is n2 null" style="rhombus;whiteSpace=wrap;html=1;" vertex="1" parent="1">
          <mxGeometry x="2620" y="120" width="80" height="80" as="geometry" />
        </mxCell>
        <mxCell id="nI0ptZJqEii6YHBotIrF-161" style="edgeStyle=orthogonalEdgeStyle;rounded=0;orthogonalLoop=1;jettySize=auto;html=1;exitX=0.5;exitY=1;exitDx=0;exitDy=0;entryX=0.5;entryY=0;entryDx=0;entryDy=0;" edge="1" parent="1" source="nI0ptZJqEii6YHBotIrF-162" target="nI0ptZJqEii6YHBotIrF-166">
          <mxGeometry relative="1" as="geometry" />
        </mxCell>
        <mxCell id="nI0ptZJqEii6YHBotIrF-162" value="n-&amp;gt;value = n2 + carry" style="rounded=0;whiteSpace=wrap;html=1;" vertex="1" parent="1">
          <mxGeometry x="2600" y="220" width="120" height="60" as="geometry" />
        </mxCell>
        <mxCell id="nI0ptZJqEii6YHBotIrF-163" style="edgeStyle=orthogonalEdgeStyle;rounded=0;orthogonalLoop=1;jettySize=auto;html=1;exitX=1;exitY=0.5;exitDx=0;exitDy=0;entryX=0.5;entryY=0;entryDx=0;entryDy=0;" edge="1" parent="1" source="nI0ptZJqEii6YHBotIrF-166" target="nI0ptZJqEii6YHBotIrF-172">
          <mxGeometry relative="1" as="geometry" />
        </mxCell>
        <mxCell id="nI0ptZJqEii6YHBotIrF-164" value="no" style="edgeLabel;html=1;align=center;verticalAlign=middle;resizable=0;points=[];" vertex="1" connectable="0" parent="nI0ptZJqEii6YHBotIrF-163">
          <mxGeometry x="-0.7703" y="2" relative="1" as="geometry">
            <mxPoint as="offset" />
          </mxGeometry>
        </mxCell>
        <mxCell id="nI0ptZJqEii6YHBotIrF-165" value="yes" style="edgeStyle=orthogonalEdgeStyle;rounded=0;orthogonalLoop=1;jettySize=auto;html=1;exitX=0.5;exitY=1;exitDx=0;exitDy=0;entryX=0.5;entryY=0;entryDx=0;entryDy=0;" edge="1" parent="1" source="nI0ptZJqEii6YHBotIrF-166" target="nI0ptZJqEii6YHBotIrF-168">
          <mxGeometry relative="1" as="geometry" />
        </mxCell>
        <mxCell id="nI0ptZJqEii6YHBotIrF-166" value="n-&amp;gt;value &amp;gt; 9" style="rhombus;whiteSpace=wrap;html=1;" vertex="1" parent="1">
          <mxGeometry x="2620" y="320" width="80" height="80" as="geometry" />
        </mxCell>
        <mxCell id="nI0ptZJqEii6YHBotIrF-167" style="edgeStyle=orthogonalEdgeStyle;rounded=0;orthogonalLoop=1;jettySize=auto;html=1;exitX=0.5;exitY=1;exitDx=0;exitDy=0;entryX=0.5;entryY=0;entryDx=0;entryDy=0;" edge="1" parent="1" source="nI0ptZJqEii6YHBotIrF-168" target="nI0ptZJqEii6YHBotIrF-170">
          <mxGeometry relative="1" as="geometry" />
        </mxCell>
        <mxCell id="nI0ptZJqEii6YHBotIrF-168" value="carry = n-&amp;gt;value / 10" style="rounded=0;whiteSpace=wrap;html=1;" vertex="1" parent="1">
          <mxGeometry x="2600" y="420" width="120" height="60" as="geometry" />
        </mxCell>
        <mxCell id="nI0ptZJqEii6YHBotIrF-169" style="edgeStyle=orthogonalEdgeStyle;rounded=0;orthogonalLoop=1;jettySize=auto;html=1;exitX=0.5;exitY=1;exitDx=0;exitDy=0;entryX=0.5;entryY=0;entryDx=0;entryDy=0;" edge="1" parent="1" source="nI0ptZJqEii6YHBotIrF-170" target="nI0ptZJqEii6YHBotIrF-174">
          <mxGeometry relative="1" as="geometry" />
        </mxCell>
        <mxCell id="nI0ptZJqEii6YHBotIrF-170" value="n-&amp;gt;value -= 10" style="rounded=0;whiteSpace=wrap;html=1;" vertex="1" parent="1">
          <mxGeometry x="2600" y="520" width="120" height="60" as="geometry" />
        </mxCell>
        <mxCell id="nI0ptZJqEii6YHBotIrF-171" style="edgeStyle=orthogonalEdgeStyle;rounded=0;orthogonalLoop=1;jettySize=auto;html=1;exitX=0.5;exitY=1;exitDx=0;exitDy=0;entryX=1;entryY=0.5;entryDx=0;entryDy=0;" edge="1" parent="1" source="nI0ptZJqEii6YHBotIrF-172" target="nI0ptZJqEii6YHBotIrF-174">
          <mxGeometry relative="1" as="geometry" />
        </mxCell>
        <mxCell id="nI0ptZJqEii6YHBotIrF-172" value="carry = 0" style="rounded=0;whiteSpace=wrap;html=1;" vertex="1" parent="1">
          <mxGeometry x="2760" y="420" width="120" height="60" as="geometry" />
        </mxCell>
        <mxCell id="nI0ptZJqEii6YHBotIrF-173" style="edgeStyle=orthogonalEdgeStyle;rounded=0;orthogonalLoop=1;jettySize=auto;html=1;exitX=0.5;exitY=1;exitDx=0;exitDy=0;entryX=0.5;entryY=0;entryDx=0;entryDy=0;" edge="1" parent="1" source="nI0ptZJqEii6YHBotIrF-174" target="nI0ptZJqEii6YHBotIrF-176">
          <mxGeometry relative="1" as="geometry" />
        </mxCell>
        <mxCell id="nI0ptZJqEii6YHBotIrF-174" value="create n-&amp;gt;next" style="rounded=0;whiteSpace=wrap;html=1;" vertex="1" parent="1">
          <mxGeometry x="2600" y="620" width="120" height="60" as="geometry" />
        </mxCell>
        <mxCell id="nI0ptZJqEii6YHBotIrF-175" style="edgeStyle=orthogonalEdgeStyle;rounded=0;orthogonalLoop=1;jettySize=auto;html=1;exitX=0;exitY=0.5;exitDx=0;exitDy=0;entryX=0;entryY=0.5;entryDx=0;entryDy=0;" edge="1" parent="1" source="nI0ptZJqEii6YHBotIrF-176" target="nI0ptZJqEii6YHBotIrF-160">
          <mxGeometry relative="1" as="geometry" />
        </mxCell>
        <mxCell id="nI0ptZJqEii6YHBotIrF-176" value="advance n, n2 forward" style="rounded=0;whiteSpace=wrap;html=1;" vertex="1" parent="1">
          <mxGeometry x="2600" y="720" width="120" height="60" as="geometry" />
        </mxCell>
        <mxCell id="nI0ptZJqEii6YHBotIrF-185" style="edgeStyle=orthogonalEdgeStyle;rounded=0;orthogonalLoop=1;jettySize=auto;html=1;exitX=0.5;exitY=1;exitDx=0;exitDy=0;entryX=0.5;entryY=0;entryDx=0;entryDy=0;" edge="1" parent="1" source="nI0ptZJqEii6YHBotIrF-179" target="nI0ptZJqEii6YHBotIrF-183">
          <mxGeometry relative="1" as="geometry" />
        </mxCell>
        <mxCell id="nI0ptZJqEii6YHBotIrF-186" value="no" style="edgeLabel;html=1;align=center;verticalAlign=middle;resizable=0;points=[];" vertex="1" connectable="0" parent="nI0ptZJqEii6YHBotIrF-185">
          <mxGeometry x="-0.2429" y="-2" relative="1" as="geometry">
            <mxPoint as="offset" />
          </mxGeometry>
        </mxCell>
        <mxCell id="nI0ptZJqEii6YHBotIrF-187" style="edgeStyle=orthogonalEdgeStyle;rounded=0;orthogonalLoop=1;jettySize=auto;html=1;exitX=1;exitY=0.5;exitDx=0;exitDy=0;entryX=1;entryY=0.5;entryDx=0;entryDy=0;" edge="1" parent="1" source="nI0ptZJqEii6YHBotIrF-179" target="nI0ptZJqEii6YHBotIrF-184">
          <mxGeometry relative="1" as="geometry" />
        </mxCell>
        <mxCell id="nI0ptZJqEii6YHBotIrF-188" value="yes" style="edgeLabel;html=1;align=center;verticalAlign=middle;resizable=0;points=[];" vertex="1" connectable="0" parent="nI0ptZJqEii6YHBotIrF-187">
          <mxGeometry x="-0.863" y="-2" relative="1" as="geometry">
            <mxPoint as="offset" />
          </mxGeometry>
        </mxCell>
        <mxCell id="nI0ptZJqEii6YHBotIrF-179" value="is carry 0" style="rhombus;whiteSpace=wrap;html=1;" vertex="1" parent="1">
          <mxGeometry x="2940" y="120" width="80" height="80" as="geometry" />
        </mxCell>
        <mxCell id="nI0ptZJqEii6YHBotIrF-183" value="n-&amp;gt;value = carry" style="rounded=0;whiteSpace=wrap;html=1;" vertex="1" parent="1">
          <mxGeometry x="2920" y="220" width="120" height="60" as="geometry" />
        </mxCell>
        <mxCell id="nI0ptZJqEii6YHBotIrF-184" value="return head" style="ellipse;whiteSpace=wrap;html=1;" vertex="1" parent="1">
          <mxGeometry x="2920" y="320" width="120" height="80" as="geometry" />
        </mxCell>
        <mxCell id="nI0ptZJqEii6YHBotIrF-198" style="edgeStyle=orthogonalEdgeStyle;rounded=0;orthogonalLoop=1;jettySize=auto;html=1;exitX=0.5;exitY=1;exitDx=0;exitDy=0;entryX=0.5;entryY=0;entryDx=0;entryDy=0;" edge="1" parent="1" source="nI0ptZJqEii6YHBotIrF-189" target="nI0ptZJqEii6YHBotIrF-190">
          <mxGeometry relative="1" as="geometry" />
        </mxCell>
        <mxCell id="nI0ptZJqEii6YHBotIrF-189" value="print_as_number(head)" style="ellipse;whiteSpace=wrap;html=1;" vertex="1" parent="1">
          <mxGeometry x="3120" width="120" height="80" as="geometry" />
        </mxCell>
        <mxCell id="nI0ptZJqEii6YHBotIrF-197" style="edgeStyle=orthogonalEdgeStyle;rounded=0;orthogonalLoop=1;jettySize=auto;html=1;exitX=0.5;exitY=1;exitDx=0;exitDy=0;entryX=0.5;entryY=0;entryDx=0;entryDy=0;" edge="1" parent="1" source="nI0ptZJqEii6YHBotIrF-190" target="nI0ptZJqEii6YHBotIrF-191">
          <mxGeometry relative="1" as="geometry" />
        </mxCell>
        <mxCell id="nI0ptZJqEii6YHBotIrF-190" value="&lt;div&gt;n = 0&lt;/div&gt;&lt;div&gt;i = 1&lt;br&gt;&lt;/div&gt;" style="rounded=0;whiteSpace=wrap;html=1;" vertex="1" parent="1">
          <mxGeometry x="3120" y="120" width="120" height="60" as="geometry" />
        </mxCell>
        <mxCell id="nI0ptZJqEii6YHBotIrF-199" value="no" style="edgeStyle=orthogonalEdgeStyle;rounded=0;orthogonalLoop=1;jettySize=auto;html=1;exitX=0.5;exitY=1;exitDx=0;exitDy=0;entryX=0.5;entryY=0;entryDx=0;entryDy=0;" edge="1" parent="1" source="nI0ptZJqEii6YHBotIrF-191" target="nI0ptZJqEii6YHBotIrF-192">
          <mxGeometry relative="1" as="geometry" />
        </mxCell>
        <mxCell id="nI0ptZJqEii6YHBotIrF-203" value="yes" style="edgeStyle=orthogonalEdgeStyle;rounded=0;orthogonalLoop=1;jettySize=auto;html=1;exitX=1;exitY=0.5;exitDx=0;exitDy=0;entryX=0;entryY=0.5;entryDx=0;entryDy=0;" edge="1" parent="1" source="nI0ptZJqEii6YHBotIrF-191" target="nI0ptZJqEii6YHBotIrF-195">
          <mxGeometry relative="1" as="geometry" />
        </mxCell>
        <mxCell id="nI0ptZJqEii6YHBotIrF-191" value="is head NULL" style="rhombus;whiteSpace=wrap;html=1;" vertex="1" parent="1">
          <mxGeometry x="3140" y="220" width="80" height="80" as="geometry" />
        </mxCell>
        <mxCell id="nI0ptZJqEii6YHBotIrF-200" style="edgeStyle=orthogonalEdgeStyle;rounded=0;orthogonalLoop=1;jettySize=auto;html=1;exitX=0.5;exitY=1;exitDx=0;exitDy=0;entryX=0.5;entryY=0;entryDx=0;entryDy=0;" edge="1" parent="1" source="nI0ptZJqEii6YHBotIrF-192" target="nI0ptZJqEii6YHBotIrF-193">
          <mxGeometry relative="1" as="geometry" />
        </mxCell>
        <mxCell id="nI0ptZJqEii6YHBotIrF-192" value="n += head-&amp;gt;value * i" style="rounded=0;whiteSpace=wrap;html=1;" vertex="1" parent="1">
          <mxGeometry x="3120" y="320" width="120" height="60" as="geometry" />
        </mxCell>
        <mxCell id="nI0ptZJqEii6YHBotIrF-201" style="edgeStyle=orthogonalEdgeStyle;rounded=0;orthogonalLoop=1;jettySize=auto;html=1;exitX=0.5;exitY=1;exitDx=0;exitDy=0;entryX=0.5;entryY=0;entryDx=0;entryDy=0;" edge="1" parent="1" source="nI0ptZJqEii6YHBotIrF-193" target="nI0ptZJqEii6YHBotIrF-194">
          <mxGeometry relative="1" as="geometry" />
        </mxCell>
        <mxCell id="nI0ptZJqEii6YHBotIrF-193" value="i *= 10" style="rounded=0;whiteSpace=wrap;html=1;" vertex="1" parent="1">
          <mxGeometry x="3120" y="420" width="120" height="60" as="geometry" />
        </mxCell>
        <mxCell id="nI0ptZJqEii6YHBotIrF-202" style="edgeStyle=orthogonalEdgeStyle;rounded=0;orthogonalLoop=1;jettySize=auto;html=1;exitX=0;exitY=0.5;exitDx=0;exitDy=0;entryX=0;entryY=0.5;entryDx=0;entryDy=0;" edge="1" parent="1" source="nI0ptZJqEii6YHBotIrF-194" target="nI0ptZJqEii6YHBotIrF-191">
          <mxGeometry relative="1" as="geometry" />
        </mxCell>
        <mxCell id="nI0ptZJqEii6YHBotIrF-194" value="head = head-&amp;gt;next" style="rounded=0;whiteSpace=wrap;html=1;" vertex="1" parent="1">
          <mxGeometry x="3120" y="520" width="120" height="60" as="geometry" />
        </mxCell>
        <mxCell id="nI0ptZJqEii6YHBotIrF-204" style="edgeStyle=orthogonalEdgeStyle;rounded=0;orthogonalLoop=1;jettySize=auto;html=1;exitX=1;exitY=0.5;exitDx=0;exitDy=0;entryX=0;entryY=0.5;entryDx=0;entryDy=0;" edge="1" parent="1" source="nI0ptZJqEii6YHBotIrF-195" target="nI0ptZJqEii6YHBotIrF-196">
          <mxGeometry relative="1" as="geometry" />
        </mxCell>
        <mxCell id="nI0ptZJqEii6YHBotIrF-195" value="print n" style="shape=parallelogram;perimeter=parallelogramPerimeter;whiteSpace=wrap;html=1;fixedSize=1;" vertex="1" parent="1">
          <mxGeometry x="3280" y="230" width="120" height="60" as="geometry" />
        </mxCell>
        <mxCell id="nI0ptZJqEii6YHBotIrF-196" value="return" style="ellipse;whiteSpace=wrap;html=1;" vertex="1" parent="1">
          <mxGeometry x="3440" y="220" width="120" height="80" as="geometry" />
        </mxCell>
        <mxCell id="nI0ptZJqEii6YHBotIrF-208" style="edgeStyle=orthogonalEdgeStyle;rounded=0;orthogonalLoop=1;jettySize=auto;html=1;exitX=0.5;exitY=1;exitDx=0;exitDy=0;entryX=0.5;entryY=0;entryDx=0;entryDy=0;" edge="1" parent="1" source="nI0ptZJqEii6YHBotIrF-205" target="nI0ptZJqEii6YHBotIrF-206">
          <mxGeometry relative="1" as="geometry" />
        </mxCell>
        <mxCell id="nI0ptZJqEii6YHBotIrF-205" value="flip(root)" style="ellipse;whiteSpace=wrap;html=1;" vertex="1" parent="1">
          <mxGeometry x="3640" width="120" height="80" as="geometry" />
        </mxCell>
        <mxCell id="nI0ptZJqEii6YHBotIrF-209" value="yes" style="edgeStyle=orthogonalEdgeStyle;rounded=0;orthogonalLoop=1;jettySize=auto;html=1;exitX=1;exitY=0.5;exitDx=0;exitDy=0;entryX=0;entryY=0.5;entryDx=0;entryDy=0;" edge="1" parent="1" source="nI0ptZJqEii6YHBotIrF-206" target="nI0ptZJqEii6YHBotIrF-207">
          <mxGeometry relative="1" as="geometry" />
        </mxCell>
        <mxCell id="nI0ptZJqEii6YHBotIrF-211" value="no" style="edgeStyle=orthogonalEdgeStyle;rounded=0;orthogonalLoop=1;jettySize=auto;html=1;exitX=0.5;exitY=1;exitDx=0;exitDy=0;entryX=0.5;entryY=0;entryDx=0;entryDy=0;" edge="1" parent="1" source="nI0ptZJqEii6YHBotIrF-206" target="nI0ptZJqEii6YHBotIrF-210">
          <mxGeometry relative="1" as="geometry" />
        </mxCell>
        <mxCell id="nI0ptZJqEii6YHBotIrF-206" value="is left and right null" style="rhombus;whiteSpace=wrap;html=1;" vertex="1" parent="1">
          <mxGeometry x="3660" y="120" width="80" height="80" as="geometry" />
        </mxCell>
        <mxCell id="nI0ptZJqEii6YHBotIrF-207" value="return new node{value, NULL, NULL}" style="ellipse;whiteSpace=wrap;html=1;" vertex="1" parent="1">
          <mxGeometry x="3800" y="120" width="120" height="80" as="geometry" />
        </mxCell>
        <mxCell id="nI0ptZJqEii6YHBotIrF-213" value="yes" style="edgeStyle=orthogonalEdgeStyle;rounded=0;orthogonalLoop=1;jettySize=auto;html=1;exitX=1;exitY=0.5;exitDx=0;exitDy=0;entryX=0;entryY=0.5;entryDx=0;entryDy=0;" edge="1" parent="1" source="nI0ptZJqEii6YHBotIrF-210" target="nI0ptZJqEii6YHBotIrF-212">
          <mxGeometry relative="1" as="geometry" />
        </mxCell>
        <mxCell id="nI0ptZJqEii6YHBotIrF-215" value="no" style="edgeStyle=orthogonalEdgeStyle;rounded=0;orthogonalLoop=1;jettySize=auto;html=1;exitX=0.5;exitY=1;exitDx=0;exitDy=0;entryX=0.5;entryY=0;entryDx=0;entryDy=0;" edge="1" parent="1" source="nI0ptZJqEii6YHBotIrF-210" target="nI0ptZJqEii6YHBotIrF-214">
          <mxGeometry relative="1" as="geometry" />
        </mxCell>
        <mxCell id="nI0ptZJqEii6YHBotIrF-210" value="is left null" style="rhombus;whiteSpace=wrap;html=1;" vertex="1" parent="1">
          <mxGeometry x="3660" y="220" width="80" height="80" as="geometry" />
        </mxCell>
        <mxCell id="nI0ptZJqEii6YHBotIrF-212" value="return new node{value, flip(right), NULL}" style="ellipse;whiteSpace=wrap;html=1;" vertex="1" parent="1">
          <mxGeometry x="3800" y="220" width="120" height="80" as="geometry" />
        </mxCell>
        <mxCell id="nI0ptZJqEii6YHBotIrF-217" value="yes" style="edgeStyle=orthogonalEdgeStyle;rounded=0;orthogonalLoop=1;jettySize=auto;html=1;exitX=1;exitY=0.5;exitDx=0;exitDy=0;entryX=0;entryY=0.5;entryDx=0;entryDy=0;" edge="1" parent="1" source="nI0ptZJqEii6YHBotIrF-214" target="nI0ptZJqEii6YHBotIrF-216">
          <mxGeometry relative="1" as="geometry" />
        </mxCell>
        <mxCell id="nI0ptZJqEii6YHBotIrF-219" value="no" style="edgeStyle=orthogonalEdgeStyle;rounded=0;orthogonalLoop=1;jettySize=auto;html=1;exitX=0.5;exitY=1;exitDx=0;exitDy=0;entryX=0.5;entryY=0;entryDx=0;entryDy=0;" edge="1" parent="1" source="nI0ptZJqEii6YHBotIrF-214" target="nI0ptZJqEii6YHBotIrF-218">
          <mxGeometry relative="1" as="geometry" />
        </mxCell>
        <mxCell id="nI0ptZJqEii6YHBotIrF-214" value="is right null" style="rhombus;whiteSpace=wrap;html=1;" vertex="1" parent="1">
          <mxGeometry x="3660" y="320" width="80" height="80" as="geometry" />
        </mxCell>
        <mxCell id="nI0ptZJqEii6YHBotIrF-216" value="return new node{value, NULL, flip(left)}" style="ellipse;whiteSpace=wrap;html=1;" vertex="1" parent="1">
          <mxGeometry x="3800" y="320" width="120" height="80" as="geometry" />
        </mxCell>
        <mxCell id="nI0ptZJqEii6YHBotIrF-218" value="return new node{value, flip(right), flip(left)}" style="ellipse;whiteSpace=wrap;html=1;" vertex="1" parent="1">
          <mxGeometry x="3640" y="420" width="120" height="80" as="geometry" />
        </mxCell>
        <mxCell id="nI0ptZJqEii6YHBotIrF-220" style="edgeStyle=orthogonalEdgeStyle;rounded=0;orthogonalLoop=1;jettySize=auto;html=1;exitX=0.5;exitY=1;exitDx=0;exitDy=0;entryX=0.5;entryY=0;entryDx=0;entryDy=0;" edge="1" parent="1" source="nI0ptZJqEii6YHBotIrF-221" target="nI0ptZJqEii6YHBotIrF-224">
          <mxGeometry relative="1" as="geometry" />
        </mxCell>
        <mxCell id="nI0ptZJqEii6YHBotIrF-221" value="sum(root)" style="ellipse;whiteSpace=wrap;html=1;" vertex="1" parent="1">
          <mxGeometry x="4000" width="120" height="80" as="geometry" />
        </mxCell>
        <mxCell id="nI0ptZJqEii6YHBotIrF-222" value="yes" style="edgeStyle=orthogonalEdgeStyle;rounded=0;orthogonalLoop=1;jettySize=auto;html=1;exitX=1;exitY=0.5;exitDx=0;exitDy=0;entryX=0;entryY=0.5;entryDx=0;entryDy=0;" edge="1" parent="1" source="nI0ptZJqEii6YHBotIrF-224" target="nI0ptZJqEii6YHBotIrF-225">
          <mxGeometry relative="1" as="geometry" />
        </mxCell>
        <mxCell id="nI0ptZJqEii6YHBotIrF-223" value="no" style="edgeStyle=orthogonalEdgeStyle;rounded=0;orthogonalLoop=1;jettySize=auto;html=1;exitX=0.5;exitY=1;exitDx=0;exitDy=0;entryX=0.5;entryY=0;entryDx=0;entryDy=0;" edge="1" parent="1" source="nI0ptZJqEii6YHBotIrF-224" target="nI0ptZJqEii6YHBotIrF-228">
          <mxGeometry relative="1" as="geometry" />
        </mxCell>
        <mxCell id="nI0ptZJqEii6YHBotIrF-224" value="is left and right null" style="rhombus;whiteSpace=wrap;html=1;" vertex="1" parent="1">
          <mxGeometry x="4020" y="120" width="80" height="80" as="geometry" />
        </mxCell>
        <mxCell id="nI0ptZJqEii6YHBotIrF-225" value="return new node{value, NULL, NULL}" style="ellipse;whiteSpace=wrap;html=1;" vertex="1" parent="1">
          <mxGeometry x="4160" y="120" width="120" height="80" as="geometry" />
        </mxCell>
        <mxCell id="nI0ptZJqEii6YHBotIrF-226" value="yes" style="edgeStyle=orthogonalEdgeStyle;rounded=0;orthogonalLoop=1;jettySize=auto;html=1;exitX=1;exitY=0.5;exitDx=0;exitDy=0;entryX=0;entryY=0.5;entryDx=0;entryDy=0;" edge="1" parent="1" source="nI0ptZJqEii6YHBotIrF-228" target="nI0ptZJqEii6YHBotIrF-229">
          <mxGeometry relative="1" as="geometry" />
        </mxCell>
        <mxCell id="nI0ptZJqEii6YHBotIrF-227" value="no" style="edgeStyle=orthogonalEdgeStyle;rounded=0;orthogonalLoop=1;jettySize=auto;html=1;exitX=0.5;exitY=1;exitDx=0;exitDy=0;entryX=0.5;entryY=0;entryDx=0;entryDy=0;" edge="1" parent="1" source="nI0ptZJqEii6YHBotIrF-228" target="nI0ptZJqEii6YHBotIrF-232">
          <mxGeometry relative="1" as="geometry" />
        </mxCell>
        <mxCell id="nI0ptZJqEii6YHBotIrF-228" value="is left null" style="rhombus;whiteSpace=wrap;html=1;" vertex="1" parent="1">
          <mxGeometry x="4020" y="220" width="80" height="80" as="geometry" />
        </mxCell>
        <mxCell id="nI0ptZJqEii6YHBotIrF-229" value="return new node{sum(right)-&amp;gt;value, NULL,&amp;nbsp;sum(right)}" style="ellipse;whiteSpace=wrap;html=1;" vertex="1" parent="1">
          <mxGeometry x="4160" y="220" width="120" height="80" as="geometry" />
        </mxCell>
        <mxCell id="nI0ptZJqEii6YHBotIrF-230" value="yes" style="edgeStyle=orthogonalEdgeStyle;rounded=0;orthogonalLoop=1;jettySize=auto;html=1;exitX=1;exitY=0.5;exitDx=0;exitDy=0;entryX=0;entryY=0.5;entryDx=0;entryDy=0;" edge="1" parent="1" source="nI0ptZJqEii6YHBotIrF-232" target="nI0ptZJqEii6YHBotIrF-233">
          <mxGeometry relative="1" as="geometry" />
        </mxCell>
        <mxCell id="nI0ptZJqEii6YHBotIrF-231" value="no" style="edgeStyle=orthogonalEdgeStyle;rounded=0;orthogonalLoop=1;jettySize=auto;html=1;exitX=0.5;exitY=1;exitDx=0;exitDy=0;entryX=0.5;entryY=0;entryDx=0;entryDy=0;" edge="1" parent="1" source="nI0ptZJqEii6YHBotIrF-232" target="nI0ptZJqEii6YHBotIrF-234">
          <mxGeometry relative="1" as="geometry" />
        </mxCell>
        <mxCell id="nI0ptZJqEii6YHBotIrF-232" value="is right null" style="rhombus;whiteSpace=wrap;html=1;" vertex="1" parent="1">
          <mxGeometry x="4020" y="320" width="80" height="80" as="geometry" />
        </mxCell>
        <mxCell id="nI0ptZJqEii6YHBotIrF-233" value="return new node{sum(left)-&amp;gt;value,&amp;nbsp;sum(left), NULL}" style="ellipse;whiteSpace=wrap;html=1;" vertex="1" parent="1">
          <mxGeometry x="4160" y="320" width="120" height="80" as="geometry" />
        </mxCell>
        <mxCell id="nI0ptZJqEii6YHBotIrF-234" value="return new node{sum(left)-&amp;gt;value+sum(right)-&amp;gt;value, sum(left), sum(right)}" style="ellipse;whiteSpace=wrap;html=1;" vertex="1" parent="1">
          <mxGeometry x="4000" y="420" width="120" height="80" as="geometry" />
        </mxCell>
      </root>
    </mxGraphModel>
  </diagram>
</mxfile>
